<svg xmlns="http://www.w3.org/2000/svg" xmlns:xlink="http://www.w3.org/1999/xlink" width="38" height="38" viewBox="0 0 38 38">
  <defs>
    <linearGradient id="linear-gradient" x1="0.5" x2="0.5" y2="1" gradientUnits="objectBoundingBox">
      <stop offset="0" stop-color="#900095"/>
      <stop offset="1" stop-color="#d90026"/>
    </linearGradient>
    <clipPath id="clip-path">
      <rect id="Rectangle_551" data-name="Rectangle 551" width="38" height="38" transform="translate(1005 8101)" stroke="#707070" stroke-width="1" fill="url(#linear-gradient)"/>
    </clipPath>
  </defs>
  <g id="Mask_Group_69" data-name="Mask Group 69" transform="translate(-1005 -8101)" clip-path="url(#clip-path)">
    <path id="Icon_metro-location" data-name="Icon metro-location" d="M19.921,1.928A11.566,11.566,0,0,0,8.355,13.494c0,11.566,11.566,25.445,11.566,25.445S31.487,25.06,31.487,13.494A11.566,11.566,0,0,0,19.921,1.928Zm0,18.65a7.084,7.084,0,1,1,7.084-7.084A7.084,7.084,0,0,1,19.921,20.578Zm-4.482-7.084a4.482,4.482,0,1,1,4.482,4.482A4.482,4.482,0,0,1,15.439,13.494Z" transform="translate(1004.562 8099.073)" fill="url(#linear-gradient)"/>
  </g>
</svg>
