<svg xmlns="http://www.w3.org/2000/svg" xmlns:xlink="http://www.w3.org/1999/xlink" width="38" height="38" viewBox="0 0 38 38">
  <defs>
    <linearGradient id="linear-gradient" x1="0.5" x2="0.5" y2="1" gradientUnits="objectBoundingBox">
      <stop offset="0" stop-color="#900095"/>
      <stop offset="1" stop-color="#d90026"/>
    </linearGradient>
    <clipPath id="clip-path">
      <rect id="Rectangle_553" data-name="Rectangle 553" width="38" height="38" transform="translate(1005 8220)" stroke="#707070" stroke-width="1" fill="url(#linear-gradient)"/>
    </clipPath>
  </defs>
  <g id="Mask_Group_71" data-name="Mask Group 71" transform="translate(-1005 -8220)" clip-path="url(#clip-path)">
    <path id="Icon_ionic-ios-call" data-name="Icon ionic-ios-call" d="M35.958,29.874a27.217,27.217,0,0,0-5.686-3.8c-1.7-.818-2.328-.8-3.535.067-1,.725-1.653,1.4-2.809,1.147S20.5,25.31,18.286,23.108s-3.931-4.488-4.176-5.643.43-1.805,1.147-2.809c.869-1.206.894-1.831.067-3.535a26.679,26.679,0,0,0-3.8-5.686C10.28,4.2,10,4.466,9.319,4.71A12.529,12.529,0,0,0,7.3,5.782,6.082,6.082,0,0,0,4.882,8.338c-.481,1.038-1.038,2.969,1.8,8.014A44.717,44.717,0,0,0,14.54,26.837h0l.008.008.008.008h0a44.891,44.891,0,0,0,10.485,7.862c5.045,2.834,6.976,2.278,8.014,1.8a5.978,5.978,0,0,0,2.556-2.421,12.529,12.529,0,0,0,1.071-2.016C36.929,31.392,37.207,31.114,35.958,29.874Z" transform="translate(1003.677 8218.663)" fill="url(#linear-gradient)"/>
  </g>
</svg>
